<svg xmlns="http://www.w3.org/2000/svg" viewBox="0 0 49 15" shape-rendering="crispEdges"><rect width="49" height="15" rx="1.6" fill="#14121f" shape-rendering="geometricPrecision"/><rect x="8" y="4" width="0.88" height="0.88" fill="#ffcd75"/><rect x="7" y="5" width="0.88" height="0.88" fill="#ffcd75"/><rect x="8" y="5" width="0.88" height="0.88" fill="#ffcd75"/><rect x="9" y="5" width="0.88" height="0.88" fill="#ffcd75"/><rect x="6" y="6" width="0.88" height="0.88" fill="#ffcd75"/><rect x="7" y="6" width="0.88" height="0.88" fill="#ffcd75"/><rect x="8" y="6" width="0.88" height="0.88" fill="#ffcd75"/><rect x="9" y="6" width="0.88" height="0.88" fill="#ffcd75"/><rect x="10" y="6" width="0.88" height="0.88" fill="#ffcd75"/><rect x="5" y="7" width="0.88" height="0.88" fill="#ffcd75"/><rect x="6" y="7" width="0.88" height="0.88" fill="#ffcd75"/><rect x="7" y="7" width="0.88" height="0.88" fill="#ffcd75"/><rect x="8" y="7" width="0.88" height="0.88" fill="#ffcd75"/><rect x="9" y="7" width="0.88" height="0.88" fill="#ffcd75"/><rect x="10" y="7" width="0.88" height="0.88" fill="#ffcd75"/><rect x="11" y="7" width="0.88" height="0.88" fill="#ffcd75"/><rect x="6" y="8" width="0.88" height="0.88" fill="#ffcd75"/><rect x="7" y="8" width="0.88" height="0.88" fill="#ffcd75"/><rect x="8" y="8" width="0.88" height="0.88" fill="#ffcd75"/><rect x="9" y="8" width="0.88" height="0.88" fill="#ffcd75"/><rect x="10" y="8" width="0.88" height="0.88" fill="#ffcd75"/><rect x="7" y="9" width="0.88" height="0.88" fill="#ffcd75"/><rect x="8" y="9" width="0.88" height="0.88" fill="#ffcd75"/><rect x="9" y="9" width="0.88" height="0.88" fill="#ffcd75"/><rect x="8" y="10" width="0.88" height="0.88" fill="#ffcd75"/><rect x="16" y="4" width="0.88" height="0.88" fill="#f4f4f4"/><rect x="17" y="4" width="0.88" height="0.88" fill="#f4f4f4"/><rect x="18" y="4" width="0.88" height="0.88" fill="#f4f4f4"/><rect x="19" y="4" width="0.88" height="0.88" fill="#f4f4f4"/><rect x="15" y="5" width="0.88" height="0.88" fill="#f4f4f4"/><rect x="15" y="6" width="0.88" height="0.88" fill="#f4f4f4"/><rect x="16" y="7" width="0.88" height="0.88" fill="#f4f4f4"/><rect x="17" y="7" width="0.88" height="0.88" fill="#f4f4f4"/><rect x="18" y="7" width="0.88" height="0.88" fill="#f4f4f4"/><rect x="19" y="8" width="0.88" height="0.88" fill="#f4f4f4"/><rect x="19" y="9" width="0.88" height="0.88" fill="#f4f4f4"/><rect x="15" y="10" width="0.88" height="0.88" fill="#f4f4f4"/><rect x="16" y="10" width="0.88" height="0.88" fill="#f4f4f4"/><rect x="17" y="10" width="0.88" height="0.88" fill="#f4f4f4"/><rect x="18" y="10" width="0.88" height="0.88" fill="#f4f4f4"/><rect x="21" y="4" width="0.88" height="0.88" fill="#f4f4f4"/><rect x="21" y="5" width="0.88" height="0.88" fill="#f4f4f4"/><rect x="21" y="6" width="0.88" height="0.88" fill="#f4f4f4"/><rect x="21" y="7" width="0.88" height="0.88" fill="#f4f4f4"/><rect x="21" y="8" width="0.88" height="0.88" fill="#f4f4f4"/><rect x="21" y="9" width="0.88" height="0.88" fill="#f4f4f4"/><rect x="21" y="10" width="0.88" height="0.88" fill="#f4f4f4"/><rect x="22" y="10" width="0.88" height="0.88" fill="#f4f4f4"/><rect x="23" y="10" width="0.88" height="0.88" fill="#f4f4f4"/><rect x="24" y="10" width="0.88" height="0.88" fill="#f4f4f4"/><rect x="25" y="10" width="0.88" height="0.88" fill="#f4f4f4"/><rect x="28" y="4" width="0.88" height="0.88" fill="#f4f4f4"/><rect x="29" y="4" width="0.88" height="0.88" fill="#f4f4f4"/><rect x="30" y="4" width="0.88" height="0.88" fill="#f4f4f4"/><rect x="27" y="5" width="0.88" height="0.88" fill="#f4f4f4"/><rect x="31" y="5" width="0.88" height="0.88" fill="#f4f4f4"/><rect x="27" y="6" width="0.88" height="0.88" fill="#f4f4f4"/><rect x="31" y="6" width="0.88" height="0.88" fill="#f4f4f4"/><rect x="27" y="7" width="0.88" height="0.88" fill="#f4f4f4"/><rect x="31" y="7" width="0.88" height="0.88" fill="#f4f4f4"/><rect x="27" y="8" width="0.88" height="0.88" fill="#f4f4f4"/><rect x="28" y="8" width="0.88" height="0.88" fill="#f4f4f4"/><rect x="29" y="8" width="0.88" height="0.88" fill="#f4f4f4"/><rect x="30" y="8" width="0.88" height="0.88" fill="#f4f4f4"/><rect x="31" y="8" width="0.88" height="0.88" fill="#f4f4f4"/><rect x="27" y="9" width="0.88" height="0.88" fill="#f4f4f4"/><rect x="31" y="9" width="0.88" height="0.88" fill="#f4f4f4"/><rect x="27" y="10" width="0.88" height="0.88" fill="#f4f4f4"/><rect x="31" y="10" width="0.88" height="0.88" fill="#f4f4f4"/><rect x="33" y="4" width="0.88" height="0.88" fill="#f4f4f4"/><rect x="34" y="4" width="0.88" height="0.88" fill="#f4f4f4"/><rect x="35" y="4" width="0.88" height="0.88" fill="#f4f4f4"/><rect x="36" y="4" width="0.88" height="0.88" fill="#f4f4f4"/><rect x="37" y="4" width="0.88" height="0.88" fill="#f4f4f4"/><rect x="35" y="5" width="0.88" height="0.88" fill="#f4f4f4"/><rect x="35" y="6" width="0.88" height="0.88" fill="#f4f4f4"/><rect x="35" y="7" width="0.88" height="0.88" fill="#f4f4f4"/><rect x="35" y="8" width="0.88" height="0.88" fill="#f4f4f4"/><rect x="35" y="9" width="0.88" height="0.88" fill="#f4f4f4"/><rect x="35" y="10" width="0.88" height="0.88" fill="#f4f4f4"/><rect x="39" y="4" width="0.88" height="0.88" fill="#f4f4f4"/><rect x="40" y="4" width="0.88" height="0.88" fill="#f4f4f4"/><rect x="41" y="4" width="0.88" height="0.88" fill="#f4f4f4"/><rect x="42" y="4" width="0.88" height="0.88" fill="#f4f4f4"/><rect x="43" y="4" width="0.88" height="0.88" fill="#f4f4f4"/><rect x="39" y="5" width="0.88" height="0.88" fill="#f4f4f4"/><rect x="39" y="6" width="0.88" height="0.88" fill="#f4f4f4"/><rect x="39" y="7" width="0.88" height="0.88" fill="#f4f4f4"/><rect x="40" y="7" width="0.88" height="0.88" fill="#f4f4f4"/><rect x="41" y="7" width="0.88" height="0.88" fill="#f4f4f4"/><rect x="42" y="7" width="0.88" height="0.88" fill="#f4f4f4"/><rect x="39" y="8" width="0.88" height="0.88" fill="#f4f4f4"/><rect x="39" y="9" width="0.88" height="0.88" fill="#f4f4f4"/><rect x="39" y="10" width="0.88" height="0.88" fill="#f4f4f4"/><rect x="40" y="10" width="0.88" height="0.88" fill="#f4f4f4"/><rect x="41" y="10" width="0.88" height="0.88" fill="#f4f4f4"/><rect x="42" y="10" width="0.88" height="0.88" fill="#f4f4f4"/><rect x="43" y="10" width="0.88" height="0.88" fill="#f4f4f4"/></svg>
